<svg viewBox="0 0 20 20" xmlns="http://www.w3.org/2000/svg">
  <path
    d="M8.9 2.5h2.2l.4 2.1c.4.1.8.3 1.1.5l1.8-1.2L16 5.5l-1.2 1.8c.2.4.4.7.5 1.1l2.1.4v2.3l-2.1.4c-.1.4-.3.8-.5 1.1l1.2 1.8-1.6 1.6-1.8-1.2c-.4.2-.7.4-1.1.5l-.4 2.1H8.9l-.4-2.1c-.4-.1-.8-.3-1.1-.5l-1.8 1.2L4 14.5l1.2-1.8c-.2-.4-.4-.7-.5-1.1l-2.1-.4V8.9l2.1-.4c.1-.4.3-.8.5-1.1L4 5.5l1.6-1.6 1.8 1.2c.4-.2.7-.4 1.1-.5l.4-2.1Z"
    fill="none"
    stroke="currentColor"
    stroke-linejoin="round"
    stroke-width="1.6"
  />
  <circle
    cx="10"
    cy="10"
    fill="none"
    r="2.7"
    stroke="currentColor"
    stroke-width="1.6"
  />
</svg>
